<?xml version="1.0" encoding="UTF-8"?><svg xmlns="http://www.w3.org/2000/svg" viewBox="0 0 1650 306.08"><defs><style>.cls-1{fill:#b5b5b5;}.cls-2{fill:#f2c100;}.cls-3{fill:#0d3b8e;}</style></defs><rect class="cls-1" width="1650" height="306.08"/><g id="version_clara"><path class="cls-3" d="M226.58,153.28h-35.54c-4.34,0-7.88,3.55-7.88,7.88v70.73c-3.72,2.17-7.47,4-11.27,5.47-10.52,4.08-21.32,6.12-32.42,6.12s-22.13-2.16-31.72-6.5c-9.6-4.33-17.91-10.32-24.96-17.97-7.05-7.64-12.48-16.75-16.29-27.33-3.81-10.57-5.72-21.98-5.72-34.21s1.91-24.33,5.72-34.78c3.81-10.45,9.24-19.49,16.29-27.14,7.05-7.64,15.43-13.57,25.14-17.77,9.71-4.2,20.34-6.31,31.9-6.31,12.48,0,23.92,2.49,34.32,7.46,8.35,3.99,16.25,9.75,23.71,17.27,3.09,3.11,8.15,3.05,11.2-.09l24.96-25.65c2.87-2.95,3-7.63.27-10.72-10.88-12.3-23.82-21.89-38.83-28.78-17.22-7.9-36.58-11.85-58.07-11.85-19.41,0-37.21,3.38-53.39,10.13-16.18,6.76-30.28,16.38-42.3,28.86-12.02,12.49-21.32,27.14-27.91,43.96-6.59,16.82-9.88,35.3-9.88,55.42s3.29,38.61,9.88,55.43c6.59,16.82,15.78,31.47,27.56,43.95,11.79,12.49,25.77,22.11,41.95,28.86,16.18,6.75,33.86,10.13,53.05,10.13,17.34,0,34.67-2.87,52-8.6,16.08-5.32,30.48-13,43.18-23.03,1.84-1.46,2.93-3.66,2.93-6.01v-97.05c0-4.34-3.55-7.88-7.88-7.88Z"/><g id="flecha"><g id="curva"><path class="cls-2" d="M1005.07,117.73c-.17.76-.18,1.53-.28,2.23-.24,2.43-1.35,4.37-3.12,5.84-2.82,2.62-5.55,5.27-8.34,7.75-10.6,9.71-22.19,18.94-33.85,27.33-55.39,39.1-116.06,70.66-179.5,94.37-148.9,54.37-313.49,65.68-468.25,32.64-106.02-22.31-208.22-63.77-298.88-122.64,46.8,11.47,92.7,22.4,139.21,31.56,60.88,11.62,122.59,20.76,184.43,24.78,67.11,4.54,134.91,4.26,201.56-3.62,53.65-6.55,106.73-18.6,157.64-36.76,37.58-13.16,74.11-29.71,109.24-48.43,23.78-12.86,47.29-26.7,69.75-41.74,18.45-12.44,41.22-27.58,59.24-40.57,0,0,1.32-.98,1.32-.98.45-.32.81-.66,1.33-.87,1.17-.47,2.88-.21,3.89.66.26.34,64.27,68.14,64.61,68.45h0Z"/></g><g id="punta"><path class="cls-2" d="M1078.14,33.51l-285.48,10.17c-5.22.19-6.75,7.21-2.08,9.55l131.04,65.67c1.23.62,2.16,1.71,2.56,3.03l36.36,118.72c1.3,4.24,7.04,4.86,9.21,1l112.95-200.62c1.93-3.43-.64-7.65-4.57-7.51Z"/></g></g><g id="letras"><path class="cls-3" d="M795.68,296.61V100.06c0-2.51,2.04-4.55,4.55-4.55h42.56c2.51,0,4.55,2.04,4.55,4.55v35.09c0,4.68-6.21,6.31-8.51,2.24h0c-.75-1.32-.8-2.94-.1-4.29,6.64-12.71,15.86-22.55,27.68-29.55,12.48-7.39,26.7-11.08,42.64-11.08,14.79,0,28.03,3.25,39.7,9.75,11.67,6.5,20.86,16.43,27.57,29.81,6.7,13.38,10.05,30.52,10.05,51.41v113.18c0,2.51-2.04,4.55-4.55,4.55h-44.99c-2.51,0-4.55-2.04-4.55-4.55v-104.01c0-16.56-3.29-28.79-9.88-36.7-6.59-7.9-15.89-11.85-27.91-11.85-8.55,0-16.24,2.04-23.06,6.11-6.82,4.08-12.13,10.07-15.95,17.97-3.81,7.9-5.72,18.35-5.72,31.34v97.13c0,2.51-2.04,4.55-4.55,4.55h-44.99c-2.51,0-4.55-2.04-4.55-4.55Z"/><path class="cls-3" d="M376.79,170.05c-1.38,6.61-3.12,12.77-5.21,18.48-1.35,3.68-6.05,4.72-8.79,1.93l-24.31-24.77c-2.35-2.4-1.91-6.33.9-8.17,2.52-1.66,4.89-3.31,7.08-4.95,8.42-6.32,14.6-13.14,18.55-20.45,3.94-7.31,5.91-15.21,5.91-23.71,0-9.88-2.29-18.37-6.85-25.49-4.57-7.11-10.84-12.59-18.82-16.44-7.98-3.85-17.52-5.78-28.63-5.78s-21.64,2.13-30.51,6.37c-8.87,4.25-15.77,10.23-20.7,17.93-4.93,7.7-7.39,16.59-7.39,26.67,0,5.53.94,11.02,2.82,16.45,1.88,5.43,4.7,10.92,8.47,16.45,1.42,2.09,3,4.22,4.76,6.39,1.98,2.45,1.44,6.08-1.21,7.8-3.94,2.57-7.54,5.15-10.81,7.74-2.68,2.13-5.14,4.31-7.39,6.55-2.82,2.82-5.3,5.72-7.44,8.7-1.84,2.56-3.46,5.18-4.79,7.87-.84,1.69-1.59,3.42-2.26,5.19-2.62,6.93-3.92,14.49-3.92,22.67,0,8.95,2.09,17.04,6.19,24.31.97,1.72,2.02,3.4,3.22,5.03,6.27,8.5,14.83,15.22,25.67,20.15,10.84,4.94,23.07,7.41,36.69,7.41,17.38,0,33.2-4.05,47.44-12.15,5.56-3.16,10.77-6.86,15.66-11.05,7.62-6.54,14.41-14.3,20.36-23.33,1.07-1.63,2.09-3.3,3.09-4.99,7.38-12.51,12.74-26.78,16.04-42.81.54-2.64-.97-5.27-3.52-6.12l-23.42-7.85c-3.03-1.02-6.23.87-6.89,3.99ZM301.84,97.44c3.58-3.56,8.6-5.33,15.05-5.33,6.09,0,10.71,1.63,13.84,4.89,3.13,3.26,4.7,7.36,4.7,12.3,0,3.96-1.17,7.71-3.49,11.26-2.33,3.56-6.32,7.31-11.96,11.26-1.5,1.05-3.16,2.14-4.97,3.27-2.21,1.38-5.12.96-6.83-1.01-1.44-1.65-2.7-3.15-3.79-4.49-2.96-3.65-5.02-6.91-6.18-9.78-1.17-2.86-1.75-5.78-1.75-8.74,0-5.53,1.79-10.08,5.38-13.63ZM340.95,229.47c-9.05,5.63-19.04,8.45-29.97,8.45-6.99,0-12.99-1.04-18.01-3.11-5.02-2.07-8.87-5.08-11.56-9.04-2.69-3.95-4.03-8.3-4.03-13.04,0-5.53,1.16-10.42,3.49-14.67,2.33-4.25,6.18-8.55,11.56-12.89,1.42-1.15,2.98-2.31,4.65-3.47,2.13-1.48,5.02-1.2,6.83.65l38,38.92c2.34,2.4,1.93,6.39-.91,8.17-.02.01-.04.02-.05.03Z"/><path class="cls-3" d="M481.1,305.74c-19.42,0-38.08-2.87-55.99-8.6-15.34-4.91-28.09-11.08-38.26-18.5-2.94-2.15-4.02-6.04-2.64-9.41l13.04-31.89c1.86-4.55,7.41-6.26,11.5-3.54,8.47,5.65,18.14,10.45,29.02,14.41,14.33,5.23,28.77,7.83,43.34,7.83,11.09,0,20.05-1.27,26.87-3.82,6.81-2.55,11.84-5.93,15.08-10.13,3.23-4.2,4.85-9.11,4.85-14.72,0-7.13-2.55-12.8-7.63-17-5.09-4.2-11.85-7.65-20.28-10.32-8.44-2.68-17.63-5.22-27.57-7.65-9.94-2.42-19.93-5.35-29.99-8.79-10.05-3.44-19.3-8.03-27.73-13.76-8.44-5.73-15.14-13.25-20.11-22.55-4.97-9.3-7.45-20.96-7.45-34.97,0-15.29,3.7-29.24,11.1-41.85,7.39-12.61,18.66-22.68,33.8-30.19,15.14-7.52,34.15-11.28,57.03-11.28,15.25,0,30.34,2.04,45.25,6.11,12.48,3.41,23.62,8.07,33.42,13.99,3.28,1.98,4.66,6.03,3.3,9.61l-12.06,31.81c-1.72,4.54-7.05,6.44-11.3,4.11-8.36-4.58-16.91-8.18-25.67-10.78-11.56-3.44-22.65-5.16-33.28-5.16s-19.99,1.34-26.7,4.01c-6.71,2.68-11.61,6.31-14.74,10.9-3.12,4.58-4.68,9.68-4.68,15.29,0,7.13,2.54,12.87,7.63,17.2,5.08,4.33,11.79,7.71,20.11,10.13,8.32,2.43,17.56,4.85,27.73,7.26,10.17,2.43,20.23,5.42,30.17,8.98,9.93,3.57,19.07,8.09,27.39,13.57,8.32,5.49,15.08,12.87,20.28,22.17,5.2,9.31,7.8,20.84,7.8,34.6,0,15.03-3.76,28.8-11.27,41.28-7.51,12.49-18.89,22.55-34.15,30.2-15.25,7.64-34.32,11.47-57.2,11.47Z"/><path class="cls-3" d="M771.51,251.46h-117.41c-4.05,0-7.34-3.29-7.34-7.34v-54.58h105.34c4.05,0,7.34-3.29,7.34-7.34v-33.86c0-4.05-3.29-7.34-7.34-7.34h-105.34v-50.38c0-4.05,3.29-7.34,7.34-7.34h112.91c4.05,0,7.34-3.29,7.34-7.34v-35.01c0-4.05-3.29-7.34-7.34-7.34h-168.73c-4.05,0-7.34,3.29-7.34,7.34v252.89c0,4.05,3.29,7.34,7.34,7.34h173.24c4.05,0,7.34-3.29,7.34-7.34v-35.01c0-4.05-3.29-7.34-7.34-7.34Z"/><path class="cls-3" d="M1053.73,296.03l-72.29-189.73c-1.98-5.21,1.86-10.79,7.43-10.79h38.38c3.33,0,6.31,2.08,7.47,5.21l59.32,161.06c1.91,5.19-1.93,10.71-7.47,10.71h-4.75c-5.58,0-9.43-5.6-7.43-10.81l61.84-161.06c1.18-3.07,4.13-5.1,7.43-5.1h34.62c5.58,0,9.42,5.59,7.43,10.8l-72.61,189.73c-1.18,3.08-4.13,5.11-7.43,5.11h-44.52c-3.3,0-6.26-2.04-7.43-5.12Z"/><path class="cls-3" d="M1228.01,66.85c-10.17,0-18.37-3.18-24.61-9.55-6.24-6.37-9.36-14.27-9.36-23.7s3.12-17.33,9.36-23.7c6.24-6.37,14.44-9.55,24.61-9.55s18.09,3,24.44,8.98c6.35,5.99,9.54,13.7,9.54,23.12,0,9.94-3.12,18.16-9.36,24.66-6.24,6.5-14.45,9.75-24.62,9.75ZM1200.97,293.74V102.93c0-4.1,3.32-7.42,7.42-7.42h39.26c4.1,0,7.42,3.32,7.42,7.42v190.81c0,4.1-3.32,7.42-7.42,7.42h-39.26c-4.1,0-7.42-3.32-7.42-7.42Z"/><path class="cls-3" d="M1372.67,304.22c-19.65,0-37.16-4.59-52.53-13.76-15.37-9.18-27.45-21.72-36.23-37.65-8.79-15.92-13.18-34.08-13.18-54.47s4.39-38.92,13.18-54.85c8.78-15.92,20.86-28.41,36.23-37.46,15.37-9.04,32.88-13.57,52.53-13.57s37.56,4.53,53.04,13.57c15.49,9.05,27.62,21.54,36.41,37.46,8.78,15.93,13.18,34.21,13.18,54.85s-4.4,38.86-13.18,54.66c-8.79,15.8-20.92,28.29-36.41,37.46-15.49,9.17-33.17,13.76-53.04,13.76ZM1372.67,255.29c9.24,0,17.39-2.23,24.44-6.69,7.05-4.45,12.71-11.02,16.99-19.69,4.27-8.66,6.41-18.85,6.41-30.58s-2.14-22.17-6.41-30.58c-4.28-8.41-9.94-14.84-16.99-19.3-7.05-4.46-15.08-6.69-24.1-6.69s-17.11,2.23-24.27,6.69c-7.17,4.46-12.89,10.89-17.16,19.3-4.28,8.41-6.41,18.6-6.41,30.58s2.13,21.92,6.41,30.58c4.27,8.67,10,15.23,17.16,19.69,7.16,4.46,15.14,6.69,23.92,6.69Z"/><path class="cls-3" d="M1558.03,304.22c-15.95,0-31.2-2.1-45.76-6.31-11.56-3.34-21.3-7.35-29.21-12.06-3.39-2.01-4.8-6.2-3.28-9.85l11.7-28.08c1.78-4.28,6.86-6.12,10.95-3.95,6.97,3.7,14.7,6.9,23.2,9.59,11.67,3.7,23.17,5.54,34.5,5.54,12.48,0,21.32-1.65,26.52-4.97,5.2-3.31,7.8-7.89,7.8-13.76,0-4.84-2.03-8.47-6.07-10.89-4.04-2.42-9.36-4.27-15.95-5.54-6.59-1.27-13.93-2.55-22.02-3.82-8.09-1.28-16.12-3.06-24.1-5.36-7.98-2.29-15.37-5.54-22.19-9.75-6.82-4.2-12.25-10-16.29-17.39-4.04-7.39-6.07-16.94-6.07-28.67,0-13,3.47-24.52,10.4-34.59,6.93-10.06,16.75-17.9,29.47-23.51,12.71-5.6,28.08-8.41,46.11-8.41,12.94,0,25.94,1.59,39,4.77,10.05,2.46,18.91,5.63,26.57,9.51,3.74,1.9,5.38,6.35,3.71,10.2l-12.02,27.76c-1.82,4.21-6.84,5.99-10.9,3.85-6.41-3.38-12.91-5.9-19.5-7.56-9.13-2.29-17.86-3.44-26.17-3.44-12.48,0-21.49,1.79-27.04,5.36-5.54,3.57-8.32,8.16-8.32,13.76,0,5.1,2.08,8.98,6.24,11.66,4.16,2.68,9.59,4.65,16.29,5.92,6.7,1.28,14.1,2.55,22.19,3.83,8.09,1.28,16.06,3.05,23.92,5.35,7.85,2.29,15.19,5.54,22.02,9.75,6.81,4.2,12.25,10,16.29,17.39,4.04,7.4,6.07,16.95,6.07,28.67,0,12.49-3.47,23.64-10.4,33.44-6.93,9.81-16.93,17.52-29.99,23.13-13.06,5.6-28.95,8.41-47.67,8.41Z"/></g></g></svg>