<svg xmlns="http://www.w3.org/2000/svg" id="vesion_oscura" viewBox="0 0 1650 306.08"><defs><style>.cls-1{fill:#fff}.cls-2{fill:#f2c100}</style></defs><path d="M226.18 152.95h-35.54a7.9 7.9 0 0 0-7.88 7.88v70.73q-5.57 3.26-11.27 5.47-15.78 6.12-32.42 6.12c-16.64 0-22.13-2.16-31.72-6.5a76 76 0 0 1-24.96-17.97q-10.57-11.46-16.29-27.33t-5.72-34.21c0-18.35 1.91-24.33 5.72-34.78a80 80 0 0 1 16.29-27.14 73.5 73.5 0 0 1 25.14-17.77q14.56-6.3 31.9-6.31 18.72 0 34.32 7.46 12.52 5.99 23.71 17.27a7.86 7.86 0 0 0 11.2-.09l24.96-25.65a7.9 7.9 0 0 0 .27-10.72 116 116 0 0 0-38.83-28.78q-25.83-11.85-58.07-11.85-29.12 0-53.39 10.13a125 125 0 0 0-42.3 28.86Q23.27 76.5 13.39 101.73t-9.88 55.42c0 30.19 3.29 38.61 9.88 55.43q9.89 25.23 27.56 43.95a121 121 0 0 0 41.95 28.86q24.27 10.13 53.05 10.13 26 0 52-8.6 24.13-7.98 43.18-23.03a7.7 7.7 0 0 0 2.93-6.01v-97.05a7.9 7.9 0 0 0-7.88-7.88" class="cls-1"/><g id="flecha"><path id="curva" d="M1004.67 117.39c-.17.76-.18 1.53-.28 2.23a8.5 8.5 0 0 1-3.12 5.84c-2.82 2.62-5.55 5.27-8.34 7.75a373 373 0 0 1-33.85 27.33c-55.39 39.1-116.06 70.66-179.5 94.37-148.9 54.37-313.49 65.68-468.25 32.64-106.02-22.31-208.22-63.77-298.88-122.64 46.8 11.47 92.7 22.4 139.21 31.56 60.88 11.62 122.59 20.76 184.43 24.78 67.11 4.54 134.91 4.26 201.56-3.62 53.65-6.55 106.73-18.6 157.64-36.76 37.58-13.16 74.11-29.71 109.24-48.43 23.78-12.86 47.29-26.7 69.75-41.74 18.45-12.44 41.22-27.58 59.24-40.57l1.32-.98c.45-.32.81-.66 1.33-.87a4.1 4.1 0 0 1 3.89.66c.26.34 64.27 68.14 64.61 68.45" class="cls-2"/><path id="punta" d="M1077.74 33.17 792.26 43.34c-5.22.19-6.75 7.21-2.08 9.55l131.04 65.67a5 5 0 0 1 2.56 3.03l36.36 118.72a5.04 5.04 0 0 0 9.21 1L1082.3 40.69a5.04 5.04 0 0 0-4.57-7.51Z" class="cls-2"/></g><g id="letras"><path d="M796.08 296.27V99.72a4.55 4.55 0 0 1 4.55-4.55h42.56a4.55 4.55 0 0 1 4.55 4.55v35.09c0 4.68-6.21 6.31-8.51 2.24a4.5 4.5 0 0 1-.1-4.29q9.96-19.06 27.68-29.55 18.73-11.08 42.64-11.08 22.19 0 39.7 9.75 17.5 9.75 27.57 29.81 10.05 20.07 10.05 51.41v113.18a4.55 4.55 0 0 1-4.55 4.55h-44.99a4.55 4.55 0 0 1-4.55-4.55V192.27q0-24.84-9.88-36.7-9.88-11.85-27.91-11.85-12.83 0-23.06 6.11t-15.95 17.97-5.72 31.34v97.13a4.55 4.55 0 0 1-4.55 4.55h-44.99a4.55 4.55 0 0 1-4.55-4.55ZM377.19 169.71a133 133 0 0 1-5.21 18.48 5.32 5.32 0 0 1-8.79 1.93l-24.31-24.77a5.3 5.3 0 0 1 .9-8.17 144 144 0 0 0 7.08-4.95q12.63-9.48 18.55-20.45a49 49 0 0 0 5.91-23.71q0-14.82-6.85-25.49a45 45 0 0 0-18.82-16.44q-11.97-5.78-28.63-5.78c-16.66 0-21.64 2.13-30.51 6.37q-13.3 6.38-20.7 17.93t-7.39 26.67a50 50 0 0 0 2.82 16.45 70 70 0 0 0 8.47 16.45 94 94 0 0 0 4.76 6.39 5.3 5.3 0 0 1-1.21 7.8 145 145 0 0 0-10.81 7.74 89 89 0 0 0-7.39 6.55 71 71 0 0 0-7.44 8.7 56 56 0 0 0-7.05 13.06 64 64 0 0 0-3.92 22.67 48.6 48.6 0 0 0 9.41 29.34q9.4 12.75 25.67 20.15 16.26 7.41 36.69 7.41 26.07 0 47.44-12.15a100 100 0 0 0 15.66-11.05 111 111 0 0 0 23.45-28.32q11.08-18.76 16.04-42.81a5.3 5.3 0 0 0-3.52-6.12l-23.42-7.85a5.32 5.32 0 0 0-6.89 3.99Zm-74.95-72.6q5.37-5.33 15.05-5.33 9.14 0 13.84 4.89t4.7 12.3q0 5.94-3.49 11.26-3.5 5.34-11.96 11.26-2.25 1.57-4.97 3.27a5.3 5.3 0 0 1-6.83-1.01q-2.16-2.48-3.79-4.49-4.44-5.47-6.18-9.78a23 23 0 0 1-1.75-8.74q0-8.3 5.38-13.63m39.11 132.02a55.6 55.6 0 0 1-29.97 8.45q-10.48 0-18.01-3.11t-11.56-9.04a22.7 22.7 0 0 1-4.03-13.04q0-8.3 3.49-14.67 3.5-6.38 11.56-12.89a79 79 0 0 1 4.65-3.47 5.3 5.3 0 0 1 6.83.65l38 38.92a5.3 5.3 0 0 1-.91 8.17z" class="cls-1"/><path d="M481.5 305.41a183 183 0 0 1-55.99-8.6q-23-7.37-38.26-18.5a7.9 7.9 0 0 1-2.64-9.41l13.04-31.89a7.77 7.77 0 0 1 11.5-3.54 136 136 0 0 0 29.02 14.41 126 126 0 0 0 43.34 7.83q16.64 0 26.87-3.82 10.22-3.83 15.08-10.13a23.5 23.5 0 0 0 4.85-14.72q0-10.7-7.63-17t-20.28-10.32a425 425 0 0 0-27.57-7.65 345 345 0 0 1-29.99-8.79 116 116 0 0 1-27.73-13.76A62 62 0 0 1 395 146.97q-7.45-13.95-7.45-34.97 0-22.93 11.1-41.85t33.8-30.19 57.03-11.28q22.88 0 45.25 6.11 18.72 5.11 33.42 13.99a7.9 7.9 0 0 1 3.3 9.61L559.39 90.2a7.96 7.96 0 0 1-11.3 4.11 131 131 0 0 0-25.67-10.78q-17.34-5.16-33.28-5.16c-15.94 0-19.99 1.34-26.7 4.01q-10.06 4.02-14.74 10.9a26.6 26.6 0 0 0-4.68 15.29q0 10.7 7.63 17.2t20.11 10.13a560 560 0 0 0 27.73 7.26 288 288 0 0 1 30.17 8.98 129 129 0 0 1 27.39 13.57q12.48 8.23 20.28 22.17 7.8 13.96 7.8 34.6 0 22.55-11.27 41.28t-34.15 30.2-57.2 11.47Zm290.41-54.28H654.5a7.34 7.34 0 0 1-7.34-7.34v-54.58H752.5a7.34 7.34 0 0 0 7.34-7.34v-33.86a7.34 7.34 0 0 0-7.34-7.34H647.16V90.29a7.34 7.34 0 0 1 7.34-7.34h112.91a7.34 7.34 0 0 0 7.34-7.34V40.6a7.34 7.34 0 0 0-7.34-7.34H598.68a7.34 7.34 0 0 0-7.34 7.34v252.89a7.34 7.34 0 0 0 7.34 7.34h173.24a7.34 7.34 0 0 0 7.34-7.34v-35.01a7.34 7.34 0 0 0-7.34-7.34Zm282.22 44.57-72.29-189.73a7.96 7.96 0 0 1 7.43-10.79h38.38a8 8 0 0 1 7.47 5.21l59.32 161.06a7.96 7.96 0 0 1-7.47 10.71h-4.75a7.96 7.96 0 0 1-7.43-10.81l61.84-161.06a8 8 0 0 1 7.43-5.1h34.62a7.96 7.96 0 0 1 7.43 10.8l-72.61 189.73a7.95 7.95 0 0 1-7.43 5.11h-44.52a7.95 7.95 0 0 1-7.43-5.12Zm174.28-229.19q-15.25 0-24.61-9.55t-9.36-23.7c0-14.15 3.12-17.33 9.36-23.7q9.36-9.55 24.61-9.55c15.25 0 18.09 3 24.44 8.98q9.53 8.99 9.54 23.12 0 14.91-9.36 24.66t-24.62 9.75Zm-27.04 226.9V102.59c0-4.1 3.32-7.42 7.42-7.42h39.26c4.1 0 7.42 3.32 7.42 7.42V293.4c0 4.1-3.32 7.42-7.42 7.42h-39.26a7.4 7.4 0 0 1-7.42-7.42Zm171.7 10.47q-29.48 0-52.53-13.76a98.3 98.3 0 0 1-36.23-37.65q-13.18-23.88-13.18-54.47c0-30.59 4.39-38.92 13.18-54.85q13.17-23.88 36.23-37.46 23.06-13.56 52.53-13.57c29.47-.01 37.56 4.53 53.04 13.57a96.6 96.6 0 0 1 36.41 37.46q13.18 23.9 13.18 54.85c0 30.95-4.4 38.86-13.18 54.66a98.3 98.3 0 0 1-36.41 37.46q-23.23 13.76-53.04 13.76m0-48.93q13.86 0 24.44-6.69 10.57-6.68 16.99-19.69 6.4-12.99 6.41-30.58c.01-17.59-2.14-22.17-6.41-30.58q-6.42-12.61-16.99-19.3t-24.1-6.69c-13.53 0-17.11 2.23-24.27 6.69q-10.76 6.69-17.16 19.3t-6.41 30.58c0 17.97 2.13 21.92 6.41 30.58q6.41 13 17.16 19.69a44.3 44.3 0 0 0 23.92 6.69Zm185.36 48.93q-23.92 0-45.76-6.31-17.34-5-29.21-12.06a7.9 7.9 0 0 1-3.28-9.85l11.7-28.08a7.9 7.9 0 0 1 10.95-3.95q10.45 5.55 23.2 9.59a114 114 0 0 0 34.5 5.54q18.72 0 26.52-4.97t7.8-13.76q0-7.26-6.07-10.89-6.06-3.63-15.95-5.54a648 648 0 0 0-22.02-3.82 200 200 0 0 1-24.1-5.36 88 88 0 0 1-22.19-9.75 46 46 0 0 1-16.29-17.39q-6.06-11.08-6.07-28.67 0-19.5 10.4-34.59t29.47-23.51q19.06-8.4 46.11-8.41 19.41 0 39 4.77 15.08 3.69 26.57 9.51a7.9 7.9 0 0 1 3.71 10.2l-12.02 27.76a7.9 7.9 0 0 1-10.9 3.85 88 88 0 0 0-19.5-7.56 108 108 0 0 0-26.17-3.44q-18.72 0-27.04 5.36t-8.32 13.76q0 7.64 6.24 11.66t16.29 5.92q10.05 1.92 22.19 3.83a192 192 0 0 1 23.92 5.35 90 90 0 0 1 22.02 9.75q10.22 6.3 16.29 17.39t6.07 28.67q0 18.74-10.4 33.44-10.4 14.72-29.99 23.13t-47.67 8.41Z" class="cls-1"/></g></svg>